<?xml version="1.0" standalone="no"?>
<!DOCTYPE svg PUBLIC "-//W3C//DTD SVG 20010904//EN"
 "http://www.w3.org/TR/2001/REC-SVG-20010904/DTD/svg10.dtd">
<svg version="1.0" xmlns="http://www.w3.org/2000/svg"
 width="260.000000pt" height="260.000000pt" viewBox="0 0 260.000000 260.000000"
 preserveAspectRatio="xMidYMid meet">
<metadata>
Created by potrace 1.11, written by Peter Selinger 2001-2013
</metadata>
<g transform="translate(0.000000,260.000000) scale(0.100000,-0.100000)"
fill="#000000" stroke="none">
<path d="M0 1300 l0 -1300 1300 0 1300 0 0 1300 0 1300 -1300 0 -1300 0 0
-1300z m831 31 c98 -249 179 -457 179 -462 0 -5 -8 -9 -18 -9 -13 0 -53 90
-186 428 -93 235 -171 430 -175 434 -3 4 -83 -187 -176 -425 -152 -386 -173
-432 -194 -435 -13 -2 -22 1 -20 6 2 5 85 215 184 466 169 428 181 456 203
454 21 -3 42 -50 203 -457z m82 12 c97 -247 179 -456 183 -465 4 -14 1 -18
-14 -18 -18 0 -41 53 -168 373 -81 204 -162 410 -180 456 -39 99 -40 101 -16
101 15 0 53 -87 195 -447z m94 -18 c146 -368 179 -461 167 -463 -9 -2 -20 0
-24 5 -4 4 -81 193 -170 418 -89 226 -170 432 -181 458 l-19 48 22 -3 c20 -3
45 -60 205 -463z m-31 300 c34 -88 116 -296 182 -462 110 -279 118 -303 98
-303 -19 0 -42 53 -201 456 -99 251 -182 460 -184 466 -2 5 7 8 19 6 19 -2 33
-28 86 -163z m547 -273 c94 -237 174 -429 177 -425 4 5 82 200 175 436 137
347 172 427 187 427 24 0 24 -2 -16 -101 -18 -46 -99 -252 -180 -456 -131
-331 -150 -373 -169 -373 -20 0 -42 50 -202 456 -99 251 -182 460 -184 466 -2
5 7 8 19 6 20 -3 44 -57 193 -436z m56 78 c108 -274 141 -367 136 -387 -3 -14
-10 -22 -14 -17 -9 9 -301 745 -301 757 0 4 8 7 18 7 15 0 46 -69 161 -360z
m63 62 c64 -163 120 -304 123 -312 3 -9 -1 -24 -8 -34 -13 -18 -17 -12 -45 60
-16 43 -75 193 -130 332 -92 233 -98 252 -78 252 18 0 35 -37 138 -298z m69
44 c69 -173 97 -256 93 -272 -3 -13 -9 -24 -13 -24 -4 0 -132 314 -220 542 -2
5 7 8 19 6 20 -3 36 -38 121 -252z m455 237 c-4 -10 -87 -219 -184 -465 -162
-411 -179 -448 -200 -448 -13 0 -21 4 -18 8 4 7 280 702 357 900 5 13 17 22
30 22 16 0 20 -4 15 -17z m85 -5 c-83 -216 -354 -895 -361 -901 -4 -5 -15 -7
-23 -5 -13 2 22 98 164 457 98 249 182 457 185 462 3 5 14 9 24 9 16 0 18 -4
11 -22z m-87 -440 c-158 -402 -186 -463 -205 -466 -18 -3 -20 0 -15 15 4 10
86 219 183 466 158 400 179 447 198 447 21 0 9 -35 -161 -462z m-1514 242 c-4
-8 -69 -171 -144 -362 -114 -289 -141 -348 -157 -348 -10 0 -19 2 -19 5 0 3
63 166 141 362 78 197 145 369 151 383 l10 25 13 -25 c7 -14 10 -31 5 -40z
m40 -70 c8 -16 -12 -77 -111 -330 -109 -277 -125 -310 -144 -310 -21 0 -14 22
108 330 72 182 132 330 133 330 2 0 8 -9 14 -20z m44 -115 c5 -18 -21 -93 -92
-272 -84 -215 -100 -248 -120 -251 -22 -3 -22 -2 -9 30 7 18 56 142 108 275
52 134 97 243 100 243 4 0 10 -11 13 -25z m96 -219 c0 -2 3 -11 6 -20 5 -14
-5 -16 -75 -16 -61 0 -81 3 -81 13 0 8 3 17 7 20 7 7 143 10 143 3z m38 -98
c3 -16 -7 -18 -107 -18 -86 0 -111 3 -111 13 0 25 13 28 114 25 87 -3 101 -5
104 -20z m32 -78 c10 -20 8 -20 -139 -20 -144 0 -149 1 -144 20 5 19 14 20
139 20 123 0 134 -2 144 -20z"/>
</g>
</svg>
